<?xml version="1.0" standalone="no"?>
<!DOCTYPE svg PUBLIC "-//W3C//DTD SVG 20010904//EN"
 "http://www.w3.org/TR/2001/REC-SVG-20010904/DTD/svg10.dtd">
<svg version="1.0" xmlns="http://www.w3.org/2000/svg"
 width="612.000000pt" height="612.000000pt" viewBox="0 0 612.000000 612.000000"
 preserveAspectRatio="xMidYMid meet">
<metadata>
Created by potrace 1.14, written by Peter Selinger 2001-2017
</metadata>
<g transform="translate(0.000000,612.000000) scale(0.100000,-0.100000)"
fill="#000000" stroke="none">
<path d="M2940 4979 c-574 -66 -1125 -353 -1470 -767 -196 -234 -339 -512
-409 -792 -42 -167 -53 -467 -25 -659 56 -384 231 -772 487 -1079 98 -118 280
-288 399 -375 390 -284 814 -417 1288 -404 205 6 314 22 492 73 726 208 1267
834 1383 1600 18 115 20 395 5 502 -75 533 -363 980 -822 1280 -334 217 -789
352 -1190 352 -67 0 -119 3 -116 6 14 14 198 35 356 41 196 7 193 5 141 89
-38 60 -85 111 -121 130 -31 16 -268 18 -398 3z m-142 -362 c30 -53 111 -136
134 -138 7 -1 126 -2 263 -3 184 -1 279 -6 360 -19 231 -38 413 -95 595 -188
382 -194 616 -504 702 -931 20 -97 23 -144 23 -323 0 -181 -3 -226 -24 -325
-189 -923 -960 -1560 -1886 -1560 -428 0 -829 142 -1148 408 -255 212 -463
574 -537 933 -119 574 51 1157 467 1600 238 252 583 467 933 580 81 26 85 25
118 -34z"/>
<path d="M2913 4131 c-45 -21 -110 -96 -149 -174 -106 -207 -254 -598 -359
-942 l-25 -82 -308 -43 c-169 -23 -311 -46 -315 -50 -10 -8 57 -95 104 -134
72 -61 78 -61 268 -34 94 13 173 23 175 21 2 -2 -7 -43 -20 -91 -14 -48 -48
-179 -76 -291 l-51 -204 24 -19 c24 -20 221 -118 236 -118 4 0 18 46 31 103
13 56 51 210 84 342 33 132 65 259 71 282 10 39 13 43 51 48 23 3 129 19 236
34 107 16 198 26 202 22 4 -3 2 -141 -3 -306 -6 -165 -9 -358 -7 -430 4 -151
15 -181 81 -219 35 -21 182 -86 193 -86 2 0 -1 12 -7 28 -13 31 -8 319 17
1031 13 367 14 490 5 640 -21 332 -50 457 -124 534 -78 80 -214 158 -275 157
-9 0 -36 -9 -59 -19z m190 -726 l2 -369 -203 -29 c-112 -16 -206 -27 -209 -24
-25 26 255 685 358 842 l33 50 9 -50 c5 -27 9 -216 10 -420z"/>
<path d="M4094 3666 c-18 -13 -19 -30 -22 -233 l-3 -219 -167 -23 c-268 -36
-243 -30 -230 -55 20 -38 122 -138 160 -157 39 -20 52 -20 206 6 l32 6 0 -204
c0 -230 5 -253 66 -306 41 -37 73 -51 113 -51 54 0 56 9 61 313 l5 281 215 29
c118 17 217 31 219 33 14 12 -122 154 -170 179 -33 18 -70 16 -236 -12 l-33
-5 0 146 c0 162 -4 178 -62 233 -53 51 -115 67 -154 39z"/>
</g>
</svg>
